<svg width="64" height="64" viewBox="0 0 96 96" fill="none" xmlns="http://www.w3.org/2000/svg" role="img" aria-label="Proofza">
  <defs>
    <linearGradient id="proofzaFavNavy" x1="18" y1="14" x2="58" y2="68" gradientUnits="userSpaceOnUse">
      <stop stop-color="#0C3B72"/>
      <stop offset="1" stop-color="#061C3D"/>
    </linearGradient>
    <linearGradient id="proofzaFavGreen" x1="34" y1="34" x2="78" y2="84" gradientUnits="userSpaceOnUse">
      <stop stop-color="#18C78C"/>
      <stop offset="1" stop-color="#03A66F"/>
    </linearGradient>
  </defs>
  <rect width="96" height="96" rx="22" fill="#F6F9FC"/>
  <path d="M47.7 10.5c2.6-1.5 5.8-1.5 8.4 0l29.2 16.9c2.6 1.5 4.2 4.3 4.2 7.3v33.6c0 3-1.6 5.8-4.2 7.3L56.1 92.5c-2.6 1.5-5.8 1.5-8.4 0L18.5 75.6c-2.6-1.5-4.2-4.3-4.2-7.3V34.7c0-3 1.6-5.8 4.2-7.3l29.2-16.9Z" fill="#FAFAF8"/>
  <path d="M49.3 15.9c1.6-.9 3.6-.9 5.2 0L79.8 30.5c1.6.9 2.6 2.6 2.6 4.5v13.3L54.6 32.2c-1.6-.9-3.6-.9-5.2 0L28.8 44.1v36.4l-8.6-5c-1.6-.9-2.6-2.6-2.6-4.5V35c0-1.9 1-3.6 2.6-4.5l29.1-14.6Z" fill="url(#proofzaFavNavy)"/>
  <path d="M83.3 35.1v35.8c0 1.9-1 3.6-2.6 4.5L54.5 90.5c-1.6.9-3.6.9-5.2 0L26.6 77.4V55.9l22.7 13.1c1.6.9 3.6.9 5.2 0l28.8-16.7V35.1Z" fill="url(#proofzaFavGreen)"/>
  <path d="M37.1 49.1 46 58l18.9-20.2" stroke="#FAFAF8" stroke-width="8" stroke-linecap="round" stroke-linejoin="round"/>
</svg>
