<svg width="600" height="132" viewBox="0 0 600 132" fill="none" xmlns="http://www.w3.org/2000/svg" role="img" aria-label="Proofza">
  <defs>
    <linearGradient id="proofzaLogoNavy" x1="25" y1="20" x2="76" y2="89" gradientUnits="userSpaceOnUse">
      <stop stop-color="#0C3B72"/>
      <stop offset="1" stop-color="#061C3D"/>
    </linearGradient>
    <linearGradient id="proofzaLogoGreen" x1="48" y1="48" x2="102" y2="108" gradientUnits="userSpaceOnUse">
      <stop stop-color="#18C78C"/>
      <stop offset="1" stop-color="#03A66F"/>
    </linearGradient>
  </defs>
  <path d="M61.7 14.5c2.6-1.5 5.8-1.5 8.4 0l35.4 20.4c2.6 1.5 4.2 4.3 4.2 7.3v40.8c0 3-1.6 5.8-4.2 7.3l-35.4 20.4c-2.6 1.5-5.8 1.5-8.4 0L26.3 90.3c-2.6-1.5-4.2-4.3-4.2-7.3V42.2c0-3 1.6-5.8 4.2-7.3l35.4-20.4Z" fill="#FAFAF8"/>
  <path d="M63.4 19.7c1.6-.9 3.6-.9 5.2 0l31.8 18.4c1.6.9 2.6 2.6 2.6 4.5v16.7L68.6 39.4c-1.6-.9-3.6-.9-5.2 0L37.8 54.2v45.4l-10.1-5.8c-1.6-.9-2.6-2.6-2.6-4.5V42.6c0-1.9 1-3.6 2.6-4.5l35.7-18.4Z" fill="url(#proofzaLogoNavy)"/>
  <path d="M103 42.6v46.7c0 1.9-1 3.6-2.6 4.5l-31.8 18.4c-1.6.9-3.6.9-5.2 0L35.3 96V68.5l28.1 16.2c1.6.9 3.6.9 5.2 0l34.4-19.9V42.6Z" fill="url(#proofzaLogoGreen)"/>
  <path d="M47.7 59.2 58.8 70.3 82.3 45.1" stroke="#FAFAF8" stroke-width="8" stroke-linecap="round" stroke-linejoin="round"/>
  <path d="M150 99V32h31.9c6.4 0 12.1 1.3 16.8 3.8 4.8 2.5 8.5 6 11.2 10.5 2.6 4.5 4 9.7 4 15.6s-1.4 11-4 15.5c-2.7 4.4-6.4 7.8-11.2 10.3-4.7 2.4-10.4 3.6-16.8 3.6h-16.1V99H150Zm15.8-20.7h14.6c5.5 0 9.8-1.4 12.8-4.3 3-2.9 4.5-6.9 4.5-12.1 0-5.3-1.5-9.4-4.5-12.3-3-3-7.3-4.5-12.8-4.5h-14.6v33.2Zm58.9 20.7V48.5h14.4v8.3c1.7-3 4.1-5.3 7.2-6.9 3.1-1.7 6.7-2.5 10.9-2.5h3.6v14.1h-4.8c-5.2 0-9.3 1.5-12.3 4.4-3 2.9-4.5 7.3-4.5 13.2V99h-14.5Zm68.1 1.3c-5.5 0-10.5-1.1-14.9-3.4a25.5 25.5 0 0 1-10.4-9.4c-2.5-4.1-3.7-8.8-3.7-14.1 0-5.2 1.2-9.8 3.7-13.9a26 26 0 0 1 10.4-9.5c4.4-2.3 9.4-3.4 14.9-3.4 5.6 0 10.6 1.1 15 3.4a26 26 0 0 1 10.4 9.5c2.5 4.1 3.8 8.7 3.8 13.9 0 5.3-1.3 10-3.8 14.1a25.5 25.5 0 0 1-10.4 9.4c-4.4 2.3-9.4 3.4-15 3.4Zm0-13.1c4.2 0 7.6-1.3 10.3-3.9 2.7-2.6 4-5.9 4-9.9 0-3.9-1.3-7.2-4-9.8-2.7-2.6-6.1-3.9-10.3-3.9-4.1 0-7.5 1.3-10.2 3.9-2.7 2.6-4.1 5.9-4.1 9.8 0 4 1.4 7.3 4.1 9.9 2.7 2.6 6.1 3.9 10.2 3.9Zm70.4 13.1c-5.5 0-10.5-1.1-14.9-3.4a25.5 25.5 0 0 1-10.4-9.4c-2.5-4.1-3.7-8.8-3.7-14.1 0-5.2 1.2-9.8 3.7-13.9a26 26 0 0 1 10.4-9.5c4.4-2.3 9.4-3.4 14.9-3.4 5.6 0 10.6 1.1 15 3.4a26 26 0 0 1 10.4 9.5c2.5 4.1 3.8 8.7 3.8 13.9 0 5.3-1.3 10-3.8 14.1a25.5 25.5 0 0 1-10.4 9.4c-4.4 2.3-9.4 3.4-15 3.4Zm0-13.1c4.2 0 7.6-1.3 10.3-3.9 2.7-2.6 4-5.9 4-9.9 0-3.9-1.3-7.2-4-9.8-2.7-2.6-6.1-3.9-10.3-3.9-4.1 0-7.5 1.3-10.2 3.9-2.7 2.6-4.1 5.9-4.1 9.8 0 4 1.4 7.3 4.1 9.9 2.7 2.6 6.1 3.9 10.2 3.9ZM410.7 99V61.2h-8.8V48.5h8.8v-4.6c0-6.1 1.8-10.9 5.4-14.4 3.7-3.6 8.7-5.3 15.1-5.3h10.5v12.6h-8.4c-2.6 0-4.6.7-6 2-1.4 1.3-2.1 3.2-2.1 5.7v4h15.2v12.7h-15.2V99h-14.5Zm39.2 0V88.7l27.4-27.6h-26.2V48.5h45.5v10.4L469.1 86.4h28.4V99h-47.6Zm82.1 1.3c-4.8 0-9.1-1.1-12.9-3.4a24.6 24.6 0 0 1-9-9.4c-2.2-4.1-3.3-8.8-3.3-14.1 0-5.2 1.1-9.8 3.3-13.9a24.9 24.9 0 0 1 9-9.5c3.8-2.3 8.1-3.4 12.9-3.4 3.8 0 7.2.7 10.2 2.2 3 1.4 5.4 3.5 7.3 6.1v-6.4H564V99h-14.5v-6.5c-1.9 2.6-4.3 4.6-7.3 6-3 1.2-6.4 1.8-10.2 1.8Zm3.3-13c4.2 0 7.6-1.3 10.3-3.9 2.6-2.6 3.9-5.9 3.9-9.9 0-3.9-1.3-7.2-3.9-9.8-2.7-2.6-6.1-3.9-10.3-3.9-4.1 0-7.5 1.3-10.2 3.9-2.7 2.6-4.1 5.9-4.1 9.8 0 4 1.4 7.3 4.1 9.9 2.7 2.6 6.1 3.9 10.2 3.9Z" fill="#082B5A"/>
</svg>
