<svg width="256" height="256" viewBox="0 0 256 256" fill="none" xmlns="http://www.w3.org/2000/svg" role="img" aria-label="Proofexa">
  <defs>
    <linearGradient id="proofexaBIconFrame" x1="42" y1="38" x2="222" y2="222" gradientUnits="userSpaceOnUse">
      <stop stop-color="#123A6F"/>
      <stop offset="1" stop-color="#061C3D"/>
    </linearGradient>
    <linearGradient id="proofexaBIconFlow" x1="72" y1="70" x2="194" y2="194" gradientUnits="userSpaceOnUse">
      <stop stop-color="#18C78C"/>
      <stop offset="1" stop-color="#05A86F"/>
    </linearGradient>
  </defs>
  <rect x="18" y="18" width="220" height="220" rx="62" fill="url(#proofexaBIconFrame)"/>
  <path d="M80 76C80 67.16 87.16 60 96 60H166C174.84 60 182 67.16 182 76V176C182 184.84 174.84 192 166 192H96C87.16 192 80 184.84 80 176V76Z" fill="#F8FBFF"/>
  <path d="M106 96H158" stroke="#123A6F" stroke-width="12" stroke-linecap="round"/>
  <path d="M106 127H146" stroke="#123A6F" stroke-width="12" stroke-linecap="round" opacity="0.75"/>
  <path d="M106 158H160" stroke="#123A6F" stroke-width="12" stroke-linecap="round" opacity="0.48"/>
  <path d="M62 103H80" stroke="#18C78C" stroke-width="11" stroke-linecap="round"/>
  <path d="M62 153H80" stroke="#18C78C" stroke-width="11" stroke-linecap="round"/>
  <path d="M182 103H200" stroke="#18C78C" stroke-width="11" stroke-linecap="round"/>
  <path d="M182 153H200" stroke="#18C78C" stroke-width="11" stroke-linecap="round"/>
  <path d="M59 103C49.61 103 42 110.61 42 120V136C42 145.39 49.61 153 59 153" stroke="url(#proofexaBIconFlow)" stroke-width="11" stroke-linecap="round"/>
  <path d="M203 103C212.39 103 220 110.61 220 120V136C220 145.39 212.39 153 203 153" stroke="url(#proofexaBIconFlow)" stroke-width="11" stroke-linecap="round"/>
  <circle cx="42" cy="128" r="12" fill="#E6A833"/>
  <circle cx="220" cy="128" r="12" fill="#18C78C"/>
  <path d="M130 192V214" stroke="#18C78C" stroke-width="11" stroke-linecap="round"/>
  <circle cx="130" cy="224" r="12" fill="#18C78C"/>
</svg>
